# xmcd
#
# Track frame offsets:
#	150
#	10571
#	30118
#	53778
#	76838
#	89482
#	103504
#	125381
#	151822
#
# Disc length: 2282 seconds
#
# Revision: 1
# Processed by: cddbd v1.5.1PL2 Copyright (c) Steve Scherf et al.
# Submitted via: EasyCDDAExtractor 6.2.0.3
#
DISCID=5308e809
DTITLE=Keith Cooper - The Truth Of The Matter
DYEAR=2002
DGENRE=Blues
TTITLE0=Beside Still Waters
TTITLE1=Blessed Assurance
TTITLE2=Lanoka Harbor
TTITLE3=Invitation
TTITLE4=When I Survey The Wondrous Cross
TTITLE5=The Commencement
TTITLE6=Castles In The Air
TTITLE7=Irish Innocence
TTITLE8=Truth Of The Matter
EXTD=
EXTT0=
EXTT1=
EXTT2=
EXTT3=
EXTT4=
EXTT5=
EXTT6=
EXTT7=
EXTT8=
PLAYORDER=
